<svg xmlns="http://www.w3.org/2000/svg" xmlns:xlink="http://www.w3.org/1999/xlink" width="500" zoomAndPan="magnify" viewBox="0 0 375 374.999991" height="500" preserveAspectRatio="xMidYMid meet" version="1.0"><defs><clipPath id="f9dff6eaee"><path d="M 83.714844 237.160156 L 281.632812 237.160156 L 281.632812 374.703125 L 83.714844 374.703125 Z M 83.714844 237.160156 " clip-rule="nonzero"/></clipPath><clipPath id="642a7c4699"><path d="M 118 247.4375 L 281.632812 247.4375 L 281.632812 374.703125 L 118 374.703125 Z M 118 247.4375 " clip-rule="nonzero"/></clipPath><clipPath id="e245e67b64"><path d="M 11.851562 0 L 354 0 L 354 343 L 11.851562 343 Z M 11.851562 0 " clip-rule="nonzero"/></clipPath><clipPath id="e84165d41d"><path d="M 52.917969 42 L 182.960938 42 L 182.960938 299.390625 L 52.917969 299.390625 Z M 52.917969 42 " clip-rule="nonzero"/></clipPath><clipPath id="be7b1f0050"><path d="M 158.75 299.019531 C 145.480469 296.5625 132.921875 292.082031 121.40625 285.90625 C 125.160156 287.914062 128.996094 289.722656 132.898438 291.332031 L 132.90625 291.324219 C 141.40625 294.84375 150.0625 297.394531 158.75 299.019531 M 72.261719 239.660156 C 61.085938 221.570312 54.230469 200.519531 53.144531 177.953125 C 53.878906 193.214844 57.253906 207.769531 62.832031 221.199219 L 62.847656 221.199219 C 65.539062 227.699219 68.695312 233.859375 72.261719 239.660156 M 53.144531 177.945312 C 53.140625 177.914062 53.140625 177.882812 53.140625 177.851562 C 53.140625 177.882812 53.140625 177.914062 53.144531 177.945312 M 53.136719 177.824219 C 53.136719 177.800781 53.136719 177.769531 53.136719 177.75 C 53.136719 177.777344 53.136719 177.800781 53.136719 177.824219 M 53.132812 177.710938 C 53.132812 177.6875 53.132812 177.671875 53.132812 177.652344 C 53.132812 177.671875 53.132812 177.691406 53.132812 177.710938 M 53.054688 175.679688 L 53.054688 175.671875 C 53.054688 175.675781 53.054688 175.679688 53.054688 175.679688 M 53.050781 175.578125 L 53.050781 175.570312 C 53.050781 175.574219 53.050781 175.574219 53.050781 175.578125 M 53.046875 175.472656 L 53.046875 175.464844 C 53.046875 175.46875 53.046875 175.472656 53.046875 175.472656 M 53.046875 175.367188 L 53.046875 175.359375 C 53.046875 175.363281 53.046875 175.367188 53.046875 175.367188 M 53.042969 175.265625 C 53.042969 175.261719 53.042969 175.257812 53.042969 175.253906 C 53.042969 175.257812 53.042969 175.265625 53.042969 175.265625 M 53.039062 175.160156 C 53.039062 175.160156 53.039062 175.15625 53.039062 175.152344 C 53.039062 175.15625 53.039062 175.160156 53.039062 175.160156 M 53.039062 175.058594 C 53.039062 175.054688 53.039062 175.050781 53.039062 175.046875 C 53.039062 175.050781 53.039062 175.054688 53.039062 175.058594 M 53.035156 174.953125 L 53.035156 174.941406 C 53.035156 174.949219 53.035156 174.949219 53.035156 174.953125 M 53.03125 174.851562 C 53.03125 174.84375 53.03125 174.84375 53.03125 174.835938 C 53.03125 174.84375 53.03125 174.847656 53.03125 174.851562 M 53.027344 174.75 C 53.027344 174.738281 53.027344 174.742188 53.027344 174.734375 C 53.027344 174.738281 53.027344 174.746094 53.027344 174.75 M 53.027344 174.644531 C 53.027344 174.636719 53.027344 174.636719 53.027344 174.628906 C 53.027344 174.636719 53.027344 174.640625 53.027344 174.644531 M 53.023438 174.542969 C 53.023438 174.53125 53.023438 174.53125 53.023438 174.523438 C 53.023438 174.53125 53.023438 174.535156 53.023438 174.542969 M 53.023438 174.4375 C 53.023438 174.429688 53.023438 174.429688 53.023438 174.417969 C 53.023438 174.425781 53.023438 174.433594 53.023438 174.4375 M 53.019531 174.335938 C 53.019531 174.324219 53.019531 174.324219 53.019531 174.3125 C 53.019531 174.320312 53.019531 174.328125 53.019531 174.335938 M 53.015625 174.230469 C 53.015625 174.222656 53.015625 174.21875 53.015625 174.210938 C 53.015625 174.21875 53.015625 174.226562 53.015625 174.230469 M 53.015625 174.125 C 53.015625 174.121094 53.015625 174.113281 53.015625 174.105469 C 53.015625 174.113281 53.015625 174.121094 53.015625 174.125 M 53.015625 174.027344 C 53.011719 174.015625 53.011719 174.007812 53.011719 174 C 53.011719 174.007812 53.011719 174.015625 53.015625 174.027344 M 53.011719 173.921875 C 53.011719 173.914062 53.011719 173.90625 53.011719 173.894531 C 53.011719 173.90625 53.011719 173.914062 53.011719 173.921875 M 53.011719 173.820312 C 53.011719 173.808594 53.011719 173.800781 53.011719 173.792969 C 53.011719 173.800781 53.011719 173.808594 53.011719 173.820312 M 53.007812 173.714844 C 53.007812 173.707031 53.007812 173.695312 53.007812 173.6875 C 53.007812 173.699219 53.007812 173.707031 53.007812 173.714844 M 53.007812 173.613281 C 53.007812 173.601562 53.007812 173.597656 53.007812 173.582031 C 53.007812 173.589844 53.007812 173.601562 53.007812 173.613281 M 53.007812 173.507812 C 53.007812 173.496094 53.007812 173.492188 53.007812 173.480469 C 53.007812 173.488281 53.007812 173.496094 53.007812 173.507812 M 53.003906 173.40625 C 53.003906 173.394531 53.003906 173.386719 53.003906 173.375 C 53.003906 173.386719 53.003906 173.394531 53.003906 173.40625 M 53.003906 173.300781 C 53.003906 173.289062 53 173.285156 53 173.269531 C 53 173.28125 53.003906 173.292969 53.003906 173.300781 M 53 173.203125 C 53 173.1875 53 173.179688 53 173.164062 C 53 173.175781 53 173.191406 53 173.203125 M 53 173.097656 C 53 173.082031 53 173.074219 53 173.0625 C 53 173.074219 53 173.085938 53 173.097656 M 53 172.992188 C 53 172.980469 53 172.972656 53 172.957031 C 53 172.96875 53 172.984375 53 172.992188 M 52.996094 172.890625 C 52.996094 172.875 52.996094 172.867188 52.996094 172.851562 C 52.996094 172.867188 52.996094 172.878906 52.996094 172.890625 M 52.996094 172.785156 C 52.996094 172.773438 52.996094 172.765625 52.996094 172.75 C 52.996094 172.761719 52.996094 172.773438 52.996094 172.785156 M 52.996094 172.683594 C 52.996094 172.671875 52.996094 172.65625 52.996094 172.644531 C 52.996094 172.65625 52.996094 172.671875 52.996094 172.683594 M 52.996094 172.578125 C 52.996094 172.570312 52.996094 172.550781 52.996094 172.542969 C 52.996094 172.554688 52.996094 172.566406 52.996094 172.578125 M 52.996094 172.472656 C 52.996094 172.464844 52.996094 172.445312 52.996094 172.4375 C 52.996094 172.449219 52.996094 172.464844 52.996094 172.472656 M 52.996094 172.371094 C 52.996094 172.363281 52.996094 172.34375 52.996094 172.332031 C 52.996094 172.34375 52.996094 172.359375 52.996094 172.371094 M 52.992188 172.265625 C 52.992188 172.257812 52.992188 172.238281 52.992188 172.230469 C 52.992188 172.242188 52.992188 172.253906 52.992188 172.265625 M 52.992188 172.164062 C 52.992188 172.152344 52.992188 172.136719 52.992188 172.125 C 52.992188 172.136719 52.992188 172.152344 52.992188 172.164062 M 52.992188 172.058594 C 52.992188 172.046875 52.992188 172.035156 52.992188 172.023438 C 52.992188 172.035156 52.992188 172.046875 52.992188 172.058594 M 52.992188 171.953125 C 52.992188 171.941406 52.992188 171.929688 52.992188 171.917969 C 52.992188 171.929688 52.992188 171.941406 52.992188 171.953125 M 52.992188 171.84375 C 52.992188 171.835938 52.992188 171.824219 52.992188 171.8125 C 52.992188 171.824219 52.992188 171.835938 52.992188 171.84375 M 52.992188 171.742188 C 52.992188 171.734375 52.992188 171.71875 52.992188 171.710938 C 52.992188 171.71875 52.992188 171.730469 52.992188 171.742188 M 55.1875 147.722656 C 57.644531 134.519531 62.101562 122.019531 68.230469 110.550781 C 66.234375 114.300781 64.433594 118.125 62.832031 122.011719 L 62.84375 122.027344 C 59.347656 130.476562 56.8125 139.082031 55.1875 147.722656 M 90.699219 80.1875 C 90.703125 80.1875 90.707031 80.179688 90.710938 80.179688 C 90.707031 80.179688 90.703125 80.183594 90.699219 80.1875 M 90.765625 80.121094 C 90.777344 80.109375 90.789062 80.097656 90.800781 80.085938 C 90.789062 80.097656 90.777344 80.109375 90.765625 80.121094 M 90.835938 80.050781 C 90.855469 80.03125 90.878906 80.007812 90.898438 79.988281 C 90.878906 80.007812 90.855469 80.03125 90.835938 80.050781 M 114.382812 61.359375 C 133.015625 49.8125 154.796875 42.863281 178.132812 42.097656 C 162.144531 42.621094 146.90625 46.046875 132.894531 51.878906 L 132.894531 51.894531 C 126.378906 54.597656 120.199219 57.773438 114.382812 61.359375 M 178.136719 42.097656 C 178.164062 42.097656 178.199219 42.097656 178.230469 42.097656 C 178.199219 42.097656 178.167969 42.097656 178.136719 42.097656 M 178.242188 42.097656 C 178.269531 42.097656 178.304688 42.09375 178.332031 42.09375 C 178.304688 42.09375 178.269531 42.097656 178.242188 42.097656 M 178.339844 42.09375 C 178.371094 42.089844 178.402344 42.089844 178.433594 42.089844 C 178.402344 42.089844 178.371094 42.089844 178.339844 42.09375 M 178.445312 42.089844 C 178.472656 42.085938 178.503906 42.085938 178.53125 42.085938 C 178.503906 42.085938 178.472656 42.085938 178.445312 42.089844 M 178.546875 42.085938 C 178.574219 42.085938 178.605469 42.085938 178.632812 42.082031 C 178.605469 42.085938 178.578125 42.085938 178.546875 42.085938 M 178.652344 42.082031 C 178.675781 42.082031 178.710938 42.082031 178.734375 42.082031 C 178.707031 42.082031 178.679688 42.082031 178.652344 42.082031 M 178.753906 42.082031 C 178.78125 42.082031 178.8125 42.078125 178.835938 42.078125 C 178.808594 42.078125 178.78125 42.082031 178.753906 42.082031 M 178.859375 42.078125 C 178.882812 42.074219 178.910156 42.074219 178.9375 42.074219 C 178.910156 42.074219 178.882812 42.074219 178.859375 42.078125 M 178.960938 42.074219 C 178.980469 42.074219 179.015625 42.074219 179.035156 42.074219 C 179.011719 42.074219 178.988281 42.074219 178.960938 42.074219 M 179.066406 42.070312 C 179.089844 42.070312 179.117188 42.070312 179.140625 42.070312 C 179.117188 42.070312 179.089844 42.070312 179.066406 42.070312 M 179.167969 42.070312 C 179.195312 42.070312 179.214844 42.070312 179.242188 42.066406 C 179.21875 42.070312 179.191406 42.070312 179.167969 42.070312 M 179.273438 42.066406 C 179.296875 42.066406 179.320312 42.066406 179.34375 42.066406 C 179.320312 42.066406 179.296875 42.066406 179.273438 42.066406 M 179.375 42.066406 C 179.402344 42.0625 179.417969 42.0625 179.445312 42.0625 C 179.421875 42.0625 179.398438 42.0625 179.375 42.066406 M 179.480469 42.0625 C 179.507812 42.058594 179.523438 42.058594 179.550781 42.058594 C 179.527344 42.058594 179.503906 42.058594 179.480469 42.0625 M 179.582031 42.058594 C 179.609375 42.058594 179.625 42.058594 179.652344 42.058594 C 179.628906 42.058594 179.605469 42.058594 179.582031 42.058594 M 179.6875 42.058594 C 179.710938 42.054688 179.730469 42.054688 179.753906 42.054688 C 179.734375 42.054688 179.707031 42.058594 179.6875 42.058594 M 179.789062 42.054688 C 179.8125 42.054688 179.835938 42.054688 179.859375 42.054688 C 179.835938 42.054688 179.8125 42.054688 179.789062 42.054688 M 179.890625 42.054688 C 179.914062 42.054688 179.9375 42.054688 179.960938 42.050781 C 179.9375 42.054688 179.914062 42.054688 179.890625 42.054688 M 179.992188 42.050781 C 180.015625 42.050781 180.042969 42.050781 180.066406 42.050781 C 180.039062 42.050781 180.019531 42.050781 179.992188 42.050781 M 180.097656 42.050781 C 180.117188 42.050781 180.144531 42.050781 180.167969 42.050781 C 180.144531 42.050781 180.121094 42.050781 180.097656 42.050781 M 180.199219 42.046875 C 180.222656 42.046875 180.246094 42.046875 180.269531 42.046875 C 180.246094 42.046875 180.222656 42.046875 180.199219 42.046875 M 180.304688 42.046875 C 180.328125 42.046875 180.351562 42.042969 180.371094 42.042969 C 180.351562 42.042969 180.328125 42.046875 180.304688 42.046875 M 180.40625 42.042969 C 180.429688 42.042969 180.453125 42.042969 180.476562 42.042969 C 180.453125 42.042969 180.429688 42.042969 180.40625 42.042969 M 180.511719 42.042969 C 180.535156 42.042969 180.554688 42.042969 180.578125 42.042969 C 180.554688 42.042969 180.53125 42.042969 180.511719 42.042969 M 180.613281 42.039062 C 180.636719 42.039062 180.65625 42.039062 180.683594 42.039062 C 180.660156 42.039062 180.636719 42.039062 180.613281 42.039062 M 180.714844 42.039062 C 180.742188 42.039062 180.761719 42.039062 180.785156 42.039062 C 180.761719 42.039062 180.738281 42.039062 180.714844 42.039062 M 180.816406 42.039062 C 180.839844 42.039062 180.867188 42.039062 180.890625 42.039062 C 180.863281 42.039062 180.84375 42.039062 180.816406 42.039062 M 180.921875 42.039062 C 180.941406 42.039062 180.96875 42.035156 180.992188 42.035156 C 180.96875 42.035156 180.945312 42.039062 180.921875 42.039062 M 181.023438 42.035156 C 181.046875 42.035156 181.074219 42.035156 181.09375 42.035156 C 181.070312 42.035156 181.046875 42.035156 181.023438 42.035156 M 181.128906 42.035156 C 181.148438 42.035156 181.175781 42.035156 181.199219 42.035156 C 181.175781 42.035156 181.152344 42.035156 181.128906 42.035156 M 181.234375 42.035156 C 181.253906 42.035156 181.28125 42.035156 181.300781 42.035156 C 181.277344 42.035156 181.253906 42.035156 181.234375 42.035156 M 181.335938 42.035156 C 181.359375 42.035156 181.382812 42.035156 181.402344 42.035156 C 181.382812 42.035156 181.359375 42.035156 181.335938 42.035156 M 181.441406 42.035156 C 181.460938 42.03125 181.488281 42.03125 181.507812 42.03125 C 181.484375 42.03125 181.460938 42.03125 181.441406 42.035156 M 181.542969 42.03125 C 181.566406 42.03125 181.589844 42.03125 181.609375 42.03125 C 181.589844 42.03125 181.566406 42.03125 181.542969 42.03125 M 181.648438 42.03125 C 181.671875 42.03125 181.6875 42.03125 181.714844 42.03125 C 181.691406 42.03125 181.667969 42.03125 181.648438 42.03125 M 181.753906 42.03125 C 181.777344 42.03125 181.796875 42.03125 181.820312 42.03125 C 181.796875 42.03125 181.777344 42.03125 181.753906 42.03125 M 181.855469 42.027344 C 181.878906 42.027344 181.898438 42.027344 181.921875 42.027344 C 181.898438 42.027344 181.875 42.027344 181.855469 42.027344 M 181.957031 42.027344 C 181.980469 42.027344 182.003906 42.027344 182.027344 42.027344 C 182 42.027344 181.980469 42.027344 181.957031 42.027344 M 182.0625 42.027344 C 182.085938 42.027344 182.105469 42.027344 182.128906 42.027344 C 182.109375 42.027344 182.085938 42.027344 182.0625 42.027344 M 182.171875 42.027344 C 182.191406 42.027344 182.210938 42.027344 182.230469 42.027344 C 182.210938 42.027344 182.191406 42.027344 182.171875 42.027344 M 182.277344 42.027344 C 182.296875 42.027344 182.316406 42.027344 182.335938 42.027344 C 182.316406 42.027344 182.296875 42.027344 182.277344 42.027344 M 182.410156 42.027344 C 182.414062 42.027344 182.425781 42.027344 182.429688 42.027344 C 182.425781 42.027344 182.417969 42.027344 182.410156 42.027344 " clip-rule="nonzero"/></clipPath><clipPath id="1226e91b86"><path d="M 285.625 139.53125 L 362.839844 139.53125 L 362.839844 172 L 285.625 172 Z M 285.625 139.53125 " clip-rule="nonzero"/></clipPath><clipPath id="b9d6b6184f"><path d="M 285.625 171.5 L 362.839844 171.5 L 362.839844 204 L 285.625 204 Z M 285.625 171.5 " clip-rule="nonzero"/></clipPath></defs><path fill="#631500" d="M 119.386719 35.027344 L 107.257812 35.027344 L 107.257812 -36.769531 L 119.386719 -36.769531 L 119.386719 35.027344 " fill-opacity="1" fill-rule="nonzero"/><path fill="#631500" d="M 257.617188 35.027344 L 245.488281 35.027344 L 245.488281 -36.769531 L 257.617188 -36.769531 L 257.617188 35.027344 " fill-opacity="1" fill-rule="nonzero"/><g clip-path="url(#f9dff6eaee)"><path fill="#7a3500" d="M 275.339844 360.828125 L 269.246094 354.730469 C 265.570312 351.050781 260.585938 348.984375 255.386719 348.984375 L 253.699219 348.984375 L 253.328125 347.066406 C 250.054688 330.097656 238.136719 316.089844 221.917969 310.15625 L 246.53125 287.136719 L 182.4375 237.484375 L 118.347656 287.136719 L 142.957031 310.15625 C 126.742188 316.089844 114.820312 330.097656 111.550781 347.066406 L 111.179688 348.984375 L 109.492188 348.984375 C 104.292969 348.984375 99.308594 351.050781 95.628906 354.730469 L 89.539062 360.828125 C 85.863281 364.507812 83.796875 369.5 83.796875 374.703125 L 281.082031 374.703125 C 281.082031 369.5 279.015625 364.507812 275.339844 360.828125 " fill-opacity="1" fill-rule="nonzero"/></g><path fill="#994d00" d="M 142.957031 316.496094 C 129.527344 321.410156 119.652344 333.015625 116.945312 347.066406 C 130.167969 348.234375 139.640625 340.046875 142.957031 316.496094 " fill-opacity="1" fill-rule="nonzero"/><g clip-path="url(#642a7c4699)"><path fill="#631500" d="M 275.339844 360.828125 L 269.246094 354.730469 C 265.570312 351.050781 260.585938 348.984375 255.386719 348.984375 L 253.699219 348.984375 L 253.328125 347.066406 C 250.054688 330.097656 238.136719 316.089844 221.917969 310.15625 L 246.53125 287.136719 L 198.449219 249.886719 L 178.558594 247.761719 L 118.347656 287.136719 C 118.347656 287.136719 145.285156 305.984375 192.769531 310.777344 C 211.746094 312.695312 226.539062 328.308594 227.25 347.289062 L 158.140625 348.984375 L 227.308594 348.984375 C 232.507812 348.984375 237.496094 351.050781 241.171875 354.730469 L 247.261719 360.828125 C 250.9375 364.507812 253.003906 369.5 253.003906 374.703125 L 281.082031 374.703125 C 281.082031 369.5 279.015625 364.507812 275.339844 360.828125 " fill-opacity="1" fill-rule="nonzero"/></g><g clip-path="url(#e245e67b64)"><path fill="#d43737" d="M 353.027344 171.605469 C 353.027344 265.914062 276.648438 342.367188 182.4375 342.367188 C 88.226562 342.367188 11.851562 265.914062 11.851562 171.605469 C 11.851562 77.296875 88.226562 0.84375 182.4375 0.84375 C 276.648438 0.84375 353.027344 77.296875 353.027344 171.605469 " fill-opacity="1" fill-rule="nonzero"/></g><path fill="#ffda61" d="M 321.589844 171.605469 C 321.589844 248.535156 259.289062 310.898438 182.4375 310.898438 C 105.585938 310.898438 43.285156 248.535156 43.285156 171.605469 C 43.285156 94.675781 105.585938 32.3125 182.4375 32.3125 C 259.289062 32.3125 321.589844 94.675781 321.589844 171.605469 " fill-opacity="1" fill-rule="nonzero"/><path fill="#d43737" d="M 182.4375 171.605469 L 182.4375 42.027344 C 164.882812 42.027344 148.160156 45.527344 132.894531 51.878906 L 132.894531 51.898438 L 182.4375 171.605469 " fill-opacity="1" fill-rule="nonzero"/><path fill="#ffa461" d="M 182.4375 171.605469 L 132.902344 51.894531 C 116.679688 58.617188 102.566406 68.257812 90.894531 79.972656 L 90.902344 79.992188 L 182.4375 171.605469 " fill-opacity="1" fill-rule="nonzero"/><path fill="#d43737" d="M 182.4375 171.605469 L 90.90625 79.980469 C 78.488281 92.410156 69.136719 106.71875 62.832031 122.011719 L 62.84375 122.027344 L 182.4375 171.605469 " fill-opacity="1" fill-rule="nonzero"/><path fill="#ffa461" d="M 182.4375 171.605469 L 62.84375 122.019531 C 56.125 138.257812 52.953125 155.0625 52.976562 171.605469 L 52.996094 171.617188 L 182.4375 171.605469 " fill-opacity="1" fill-rule="nonzero"/><path fill="#d43737" d="M 182.4375 171.605469 L 52.992188 171.605469 C 52.992188 189.179688 56.484375 205.921875 62.832031 221.199219 L 62.855469 221.199219 L 182.4375 171.605469 " fill-opacity="1" fill-rule="nonzero"/><path fill="#ffa461" d="M 182.4375 171.605469 L 62.84375 221.195312 C 69.5625 237.429688 79.191406 251.558594 90.898438 263.242188 L 90.917969 263.234375 L 182.4375 171.605469 " fill-opacity="1" fill-rule="nonzero"/><path fill="#d43737" d="M 182.4375 171.605469 L 90.90625 263.230469 C 103.320312 275.65625 117.617188 285.023438 132.898438 291.332031 L 132.914062 291.316406 L 182.4375 171.605469 " fill-opacity="1" fill-rule="nonzero"/><path fill="#ffa461" d="M 182.4375 171.605469 L 132.902344 291.316406 C 149.121094 298.042969 165.910156 301.21875 182.441406 301.199219 L 182.449219 301.179688 L 182.4375 171.605469 " fill-opacity="1" fill-rule="nonzero"/><path fill="#d43737" d="M 182.4375 171.605469 L 182.4375 301.183594 C 199.996094 301.183594 216.71875 297.683594 231.984375 291.332031 L 231.984375 291.3125 L 182.4375 171.605469 " fill-opacity="1" fill-rule="nonzero"/><path fill="#ffa461" d="M 182.4375 171.605469 L 231.976562 291.316406 C 248.195312 284.589844 262.308594 274.953125 273.984375 263.238281 L 273.972656 263.21875 L 182.4375 171.605469 " fill-opacity="1" fill-rule="nonzero"/><path fill="#d43737" d="M 182.4375 171.605469 L 273.972656 263.230469 C 286.386719 250.800781 295.738281 236.492188 302.046875 221.195312 L 302.03125 221.183594 L 182.4375 171.605469 " fill-opacity="1" fill-rule="nonzero"/><path fill="#ffa461" d="M 182.4375 171.605469 L 302.03125 221.195312 C 308.75 204.957031 311.921875 188.152344 311.902344 171.605469 L 311.878906 171.59375 L 182.4375 171.605469 " fill-opacity="1" fill-rule="nonzero"/><path fill="#d43737" d="M 182.4375 171.605469 L 311.886719 171.605469 C 311.886719 154.03125 308.390625 137.289062 302.042969 122.011719 L 302.023438 122.011719 L 182.4375 171.605469 " fill-opacity="1" fill-rule="nonzero"/><path fill="#ffa461" d="M 182.4375 171.605469 L 302.03125 122.019531 C 295.3125 105.78125 285.683594 91.652344 273.980469 79.96875 L 273.960938 79.976562 L 182.4375 171.605469 " fill-opacity="1" fill-rule="nonzero"/><path fill="#d43737" d="M 182.4375 171.605469 L 273.972656 79.980469 C 261.554688 67.550781 247.261719 58.1875 231.980469 51.878906 L 231.964844 51.894531 L 182.4375 171.605469 " fill-opacity="1" fill-rule="nonzero"/><path fill="#ffa461" d="M 182.4375 171.605469 L 231.976562 51.894531 C 215.753906 45.167969 198.96875 41.992188 182.4375 42.011719 L 182.429688 42.035156 L 182.4375 171.605469 " fill-opacity="1" fill-rule="nonzero"/><g clip-path="url(#e84165d41d)"><g clip-path="url(#be7b1f0050)"><path fill="#d08e4f" d="M 52.992188 299.019531 L 182.429688 299.019531 L 182.429688 42.027344 L 52.992188 42.027344 Z M 52.992188 299.019531 " fill-opacity="1" fill-rule="nonzero"/></g></g><path fill="#b62d36" d="M 139.363281 67.511719 L 132.902344 51.894531 C 132.898438 51.894531 132.898438 51.894531 132.894531 51.894531 L 132.894531 51.878906 C 146.90625 46.046875 162.144531 42.621094 178.132812 42.097656 L 178.136719 42.097656 C 178.167969 42.097656 178.199219 42.097656 178.230469 42.097656 C 178.234375 42.097656 178.234375 42.097656 178.242188 42.097656 C 178.269531 42.097656 178.304688 42.09375 178.332031 42.09375 C 178.339844 42.09375 178.335938 42.09375 178.339844 42.09375 C 178.371094 42.089844 178.402344 42.089844 178.433594 42.089844 C 178.4375 42.089844 178.441406 42.089844 178.445312 42.089844 C 178.472656 42.085938 178.503906 42.085938 178.53125 42.085938 C 178.535156 42.085938 178.542969 42.085938 178.546875 42.085938 C 178.578125 42.085938 178.605469 42.085938 178.632812 42.082031 C 178.640625 42.082031 178.644531 42.082031 178.652344 42.082031 C 178.679688 42.082031 178.707031 42.082031 178.734375 42.082031 C 178.742188 42.082031 178.746094 42.082031 178.753906 42.082031 C 178.78125 42.082031 178.808594 42.078125 178.835938 42.078125 C 178.84375 42.078125 178.851562 42.078125 178.859375 42.078125 C 178.882812 42.074219 178.910156 42.074219 178.9375 42.074219 C 178.945312 42.074219 178.953125 42.074219 178.960938 42.074219 C 178.988281 42.074219 179.011719 42.074219 179.035156 42.074219 C 179.050781 42.070312 179.054688 42.070312 179.066406 42.070312 C 179.089844 42.070312 179.117188 42.070312 179.140625 42.070312 C 179.148438 42.070312 179.160156 42.070312 179.167969 42.070312 C 179.191406 42.070312 179.21875 42.070312 179.242188 42.066406 C 179.25 42.066406 179.261719 42.066406 179.273438 42.066406 C 179.296875 42.066406 179.320312 42.066406 179.34375 42.066406 C 179.351562 42.066406 179.367188 42.066406 179.375 42.066406 C 179.398438 42.0625 179.421875 42.0625 179.445312 42.0625 C 179.453125 42.0625 179.472656 42.0625 179.480469 42.0625 C 179.503906 42.058594 179.527344 42.058594 179.550781 42.058594 C 179.558594 42.058594 179.574219 42.058594 179.582031 42.058594 C 179.605469 42.058594 179.628906 42.058594 179.652344 42.058594 C 179.660156 42.058594 179.675781 42.058594 179.6875 42.058594 C 179.707031 42.058594 179.734375 42.054688 179.753906 42.054688 C 179.765625 42.054688 179.78125 42.054688 179.789062 42.054688 C 179.8125 42.054688 179.835938 42.054688 179.859375 42.054688 C 179.871094 42.054688 179.878906 42.054688 179.890625 42.054688 C 179.914062 42.054688 179.9375 42.054688 179.960938 42.050781 C 179.972656 42.050781 179.980469 42.050781 179.992188 42.050781 C 180.019531 42.050781 180.039062 42.050781 180.066406 42.050781 C 180.078125 42.050781 180.085938 42.050781 180.097656 42.050781 C 180.121094 42.050781 180.144531 42.050781 180.167969 42.050781 C 180.179688 42.050781 180.1875 42.050781 180.199219 42.046875 C 180.222656 42.046875 180.246094 42.046875 180.269531 42.046875 C 180.28125 42.046875 180.292969 42.046875 180.304688 42.046875 C 180.328125 42.046875 180.351562 42.042969 180.371094 42.042969 C 180.386719 42.042969 180.394531 42.042969 180.40625 42.042969 C 180.429688 42.042969 180.453125 42.042969 180.476562 42.042969 C 180.484375 42.042969 180.5 42.042969 180.511719 42.042969 C 180.53125 42.042969 180.554688 42.042969 180.578125 42.042969 C 180.589844 42.042969 180.605469 42.039062 180.613281 42.039062 C 180.636719 42.039062 180.660156 42.039062 180.683594 42.039062 C 180.691406 42.039062 180.710938 42.039062 180.714844 42.039062 C 180.738281 42.039062 180.761719 42.039062 180.785156 42.039062 C 180.792969 42.039062 180.808594 42.039062 180.816406 42.039062 C 180.84375 42.039062 180.863281 42.039062 180.890625 42.039062 C 180.902344 42.039062 180.910156 42.039062 180.921875 42.039062 C 180.945312 42.039062 180.96875 42.035156 180.992188 42.035156 C 181.003906 42.035156 181.011719 42.035156 181.023438 42.035156 C 181.046875 42.035156 181.070312 42.035156 181.09375 42.035156 C 181.109375 42.035156 181.117188 42.035156 181.128906 42.035156 C 181.152344 42.035156 181.175781 42.035156 181.199219 42.035156 C 181.210938 42.035156 181.21875 42.035156 181.234375 42.035156 C 181.253906 42.035156 181.277344 42.035156 181.300781 42.035156 C 181.316406 42.035156 181.324219 42.035156 181.335938 42.035156 C 181.359375 42.035156 181.382812 42.035156 181.402344 42.035156 C 181.417969 42.035156 181.425781 42.035156 181.441406 42.035156 C 181.460938 42.03125 181.484375 42.03125 181.507812 42.03125 C 181.519531 42.03125 181.53125 42.03125 181.542969 42.03125 C 181.566406 42.03125 181.589844 42.03125 181.609375 42.03125 C 181.621094 42.03125 181.636719 42.03125 181.648438 42.03125 C 181.667969 42.03125 181.691406 42.03125 181.714844 42.03125 C 181.726562 42.03125 181.742188 42.03125 181.753906 42.03125 C 181.777344 42.03125 181.796875 42.03125 181.820312 42.03125 C 181.828125 42.03125 181.84375 42.027344 181.855469 42.027344 C 181.875 42.027344 181.898438 42.027344 181.921875 42.027344 C 181.929688 42.027344 181.949219 42.027344 181.957031 42.027344 C 181.980469 42.027344 182 42.027344 182.027344 42.027344 C 182.039062 42.027344 182.050781 42.027344 182.0625 42.027344 C 182.085938 42.027344 182.109375 42.027344 182.128906 42.027344 C 182.144531 42.027344 182.15625 42.027344 182.171875 42.027344 C 182.191406 42.027344 182.210938 42.027344 182.230469 42.027344 C 182.25 42.027344 182.257812 42.027344 182.277344 42.027344 C 182.296875 42.027344 182.316406 42.027344 182.335938 42.027344 C 182.363281 42.027344 182.382812 42.027344 182.410156 42.027344 C 182.417969 42.027344 182.425781 42.027344 182.429688 42.027344 L 182.429688 56.875 C 167.148438 57.777344 152.625 61.496094 139.363281 67.511719 " fill-opacity="1" fill-rule="nonzero"/><path fill="#d06e4f" d="M 103.378906 92.46875 L 90.90625 79.980469 C 97.972656 72.910156 105.847656 66.652344 114.382812 61.359375 C 120.199219 57.773438 126.378906 54.597656 132.894531 51.894531 C 132.898438 51.894531 132.898438 51.894531 132.902344 51.894531 L 139.363281 67.511719 C 125.886719 73.628906 113.710938 82.128906 103.378906 92.46875 M 90.898438 79.988281 C 90.902344 79.984375 90.902344 79.984375 90.902344 79.984375 C 90.902344 79.984375 90.902344 79.984375 90.898438 79.988281 " fill-opacity="1" fill-rule="nonzero"/><path fill="#b62d36" d="M 78.449219 128.488281 L 62.84375 122.019531 C 62.84375 122.023438 62.84375 122.023438 62.84375 122.027344 L 62.832031 122.011719 C 64.433594 118.125 66.234375 114.300781 68.230469 110.550781 C 74.226562 99.34375 81.8125 89.121094 90.699219 80.1875 C 90.703125 80.183594 90.707031 80.179688 90.710938 80.179688 C 90.730469 80.15625 90.746094 80.140625 90.765625 80.121094 C 90.777344 80.109375 90.789062 80.097656 90.800781 80.085938 C 90.808594 80.078125 90.824219 80.0625 90.835938 80.050781 C 90.855469 80.03125 90.878906 80.007812 90.898438 79.988281 C 90.902344 79.984375 90.902344 79.984375 90.90625 79.980469 C 90.902344 79.984375 90.90625 79.980469 90.90625 79.980469 L 103.378906 92.46875 C 93.050781 102.808594 84.5625 114.996094 78.449219 128.488281 " fill-opacity="1" fill-rule="nonzero"/><path fill="#d06e4f" d="M 67.820312 171.605469 L 52.992188 171.605469 C 52.992188 163.445312 53.746094 155.460938 55.1875 147.722656 C 56.8125 139.082031 59.347656 130.476562 62.84375 122.027344 C 62.84375 122.023438 62.84375 122.023438 62.84375 122.019531 L 78.449219 128.488281 C 72.4375 141.765625 68.722656 156.308594 67.820312 171.605469 " fill-opacity="1" fill-rule="nonzero"/><path fill="#b62d36" d="M 62.847656 221.199219 L 62.832031 221.199219 C 57.253906 207.769531 53.878906 193.214844 53.144531 177.953125 L 53.144531 177.945312 C 53.140625 177.914062 53.140625 177.882812 53.140625 177.851562 C 53.140625 177.839844 53.140625 177.839844 53.136719 177.824219 C 53.136719 177.800781 53.136719 177.777344 53.136719 177.75 C 53.136719 177.738281 53.132812 177.722656 53.132812 177.710938 C 53.132812 177.691406 53.132812 177.671875 53.132812 177.652344 C 53.105469 177.0625 53.078125 176.476562 53.0625 175.886719 C 53.058594 175.816406 53.058594 175.75 53.054688 175.679688 C 53.054688 175.679688 53.054688 175.675781 53.054688 175.671875 C 53.054688 175.640625 53.054688 175.613281 53.050781 175.578125 C 53.050781 175.574219 53.050781 175.574219 53.050781 175.570312 C 53.050781 175.535156 53.046875 175.507812 53.046875 175.472656 C 53.046875 175.472656 53.046875 175.46875 53.046875 175.464844 C 53.046875 175.429688 53.046875 175.40625 53.046875 175.367188 C 53.046875 175.367188 53.046875 175.363281 53.046875 175.359375 C 53.042969 175.328125 53.042969 175.300781 53.042969 175.265625 C 53.042969 175.265625 53.042969 175.257812 53.042969 175.253906 C 53.042969 175.222656 53.042969 175.191406 53.039062 175.160156 C 53.039062 175.160156 53.039062 175.15625 53.039062 175.152344 C 53.039062 175.121094 53.039062 175.089844 53.039062 175.058594 C 53.039062 175.054688 53.039062 175.050781 53.039062 175.046875 C 53.035156 175.015625 53.035156 174.984375 53.035156 174.953125 C 53.035156 174.949219 53.035156 174.949219 53.035156 174.941406 C 53.03125 174.910156 53.03125 174.882812 53.03125 174.851562 C 53.03125 174.847656 53.03125 174.84375 53.03125 174.835938 C 53.03125 174.8125 53.03125 174.773438 53.027344 174.75 C 53.027344 174.746094 53.027344 174.738281 53.027344 174.734375 C 53.027344 174.707031 53.027344 174.671875 53.027344 174.644531 C 53.027344 174.640625 53.027344 174.636719 53.027344 174.628906 C 53.027344 174.605469 53.027344 174.566406 53.023438 174.542969 C 53.023438 174.535156 53.023438 174.53125 53.023438 174.523438 C 53.023438 174.496094 53.023438 174.464844 53.023438 174.4375 C 53.023438 174.433594 53.023438 174.425781 53.023438 174.417969 C 53.023438 174.390625 53.019531 174.359375 53.019531 174.335938 C 53.019531 174.328125 53.019531 174.320312 53.019531 174.3125 C 53.019531 174.289062 53.019531 174.257812 53.015625 174.230469 C 53.015625 174.226562 53.015625 174.21875 53.015625 174.210938 C 53.015625 174.183594 53.015625 174.152344 53.015625 174.125 C 53.015625 174.121094 53.015625 174.113281 53.015625 174.105469 C 53.015625 174.078125 53.015625 174.054688 53.015625 174.027344 C 53.011719 174.019531 53.011719 174.007812 53.011719 174 C 53.011719 173.972656 53.011719 173.949219 53.011719 173.921875 C 53.011719 173.914062 53.011719 173.90625 53.011719 173.894531 C 53.011719 173.871094 53.011719 173.847656 53.011719 173.820312 C 53.011719 173.808594 53.011719 173.800781 53.011719 173.792969 C 53.007812 173.765625 53.007812 173.742188 53.007812 173.714844 C 53.007812 173.707031 53.007812 173.699219 53.007812 173.6875 C 53.007812 173.664062 53.007812 173.632812 53.007812 173.613281 C 53.007812 173.601562 53.007812 173.589844 53.007812 173.582031 C 53.007812 173.558594 53.007812 173.53125 53.007812 173.507812 C 53.007812 173.496094 53.007812 173.488281 53.007812 173.480469 C 53.007812 173.457031 53.003906 173.429688 53.003906 173.40625 C 53.003906 173.394531 53.003906 173.386719 53.003906 173.375 C 53.003906 173.351562 53.003906 173.324219 53.003906 173.300781 C 53.003906 173.292969 53 173.28125 53 173.269531 C 53 173.25 53 173.222656 53 173.203125 C 53 173.191406 53 173.175781 53 173.164062 C 53 173.144531 53 173.117188 53 173.097656 C 53 173.085938 53 173.074219 53 173.0625 C 53 173.039062 53 173.015625 53 172.992188 C 53 172.984375 53 172.96875 53 172.957031 C 53 172.9375 53 172.910156 52.996094 172.890625 C 52.996094 172.878906 52.996094 172.867188 52.996094 172.851562 C 52.996094 172.832031 52.996094 172.808594 52.996094 172.785156 C 52.996094 172.773438 52.996094 172.761719 52.996094 172.75 C 52.996094 172.730469 52.996094 172.703125 52.996094 172.683594 C 52.996094 172.671875 52.996094 172.65625 52.996094 172.644531 C 52.996094 172.621094 52.996094 172.605469 52.996094 172.578125 C 52.996094 172.566406 52.996094 172.554688 52.996094 172.542969 C 52.996094 172.515625 52.996094 172.5 52.996094 172.472656 C 52.996094 172.464844 52.996094 172.449219 52.996094 172.4375 C 52.996094 172.410156 52.996094 172.394531 52.996094 172.371094 C 52.996094 172.359375 52.996094 172.34375 52.996094 172.332031 C 52.996094 172.308594 52.992188 172.292969 52.992188 172.265625 C 52.992188 172.253906 52.992188 172.242188 52.992188 172.230469 C 52.992188 172.207031 52.992188 172.1875 52.992188 172.164062 C 52.992188 172.152344 52.992188 172.136719 52.992188 172.125 C 52.992188 172.105469 52.992188 172.082031 52.992188 172.058594 C 52.992188 172.046875 52.992188 172.035156 52.992188 172.023438 C 52.992188 172 52.992188 171.976562 52.992188 171.953125 C 52.992188 171.941406 52.992188 171.929688 52.992188 171.917969 C 52.992188 171.890625 52.992188 171.871094 52.992188 171.84375 C 52.992188 171.835938 52.992188 171.824219 52.992188 171.8125 C 52.992188 171.789062 52.992188 171.769531 52.992188 171.742188 C 52.992188 171.730469 52.992188 171.71875 52.992188 171.710938 C 52.992188 171.671875 52.992188 171.640625 52.992188 171.605469 L 67.820312 171.605469 C 67.679688 174.027344 67.609375 176.464844 67.609375 178.917969 C 67.609375 192.125 69.699219 204.835938 73.566406 216.746094 L 62.84375 221.195312 C 62.847656 221.195312 62.847656 221.199219 62.847656 221.199219 " fill-opacity="1" fill-rule="nonzero"/><path fill="#d06e4f" d="M 90.90625 263.230469 C 83.824219 256.140625 77.558594 248.234375 72.261719 239.660156 C 68.695312 233.859375 65.539062 227.699219 62.847656 221.199219 C 62.847656 221.199219 62.847656 221.195312 62.84375 221.195312 L 73.566406 216.746094 C 78.5 231.933594 86.324219 245.816406 96.390625 257.738281 L 90.90625 263.230469 " fill-opacity="1" fill-rule="nonzero"/><path fill="#b62d36" d="M 132.898438 291.332031 C 128.996094 289.722656 125.160156 287.914062 121.40625 285.90625 C 110.140625 279.863281 99.867188 272.199219 90.90625 263.230469 L 96.390625 257.738281 C 106.859375 270.140625 119.746094 280.425781 134.328125 287.867188 L 132.902344 291.316406 C 132.902344 291.320312 132.90625 291.320312 132.90625 291.324219 L 132.898438 291.332031 " fill-opacity="1" fill-rule="nonzero"/><path fill="#d06e4f" d="M 182.4375 301.183594 C 174.347656 301.183594 166.429688 300.441406 158.75 299.019531 C 150.0625 297.394531 141.40625 294.84375 132.90625 291.324219 C 132.90625 291.320312 132.902344 291.320312 132.902344 291.316406 L 134.328125 287.867188 C 148.914062 295.308594 165.199219 299.910156 182.4375 300.929688 L 182.4375 301.183594 " fill-opacity="1" fill-rule="nonzero"/><path fill="#b62d36" d="M 182.4375 301.183594 L 182.4375 300.929688 C 183.65625 301 184.867188 301.054688 186.089844 301.089844 C 184.875 301.125 183.664062 301.183594 182.4375 301.183594 " fill-opacity="1" fill-rule="nonzero"/><path fill="#d08e4f" d="M 311.886719 171.5 C 311.886719 171.492188 311.886719 171.480469 311.886719 171.46875 C 311.886719 171.476562 311.886719 171.492188 311.886719 171.5 M 311.886719 171.398438 C 311.886719 171.386719 311.886719 171.375 311.886719 171.363281 C 311.886719 171.371094 311.886719 171.386719 311.886719 171.398438 M 311.886719 171.292969 C 311.886719 171.28125 311.886719 171.269531 311.882812 171.257812 C 311.886719 171.269531 311.886719 171.277344 311.886719 171.292969 M 311.882812 171.191406 C 311.882812 171.175781 311.882812 171.164062 311.882812 171.148438 C 311.882812 171.164062 311.882812 171.175781 311.882812 171.191406 M 311.882812 171.085938 C 311.882812 171.070312 311.882812 171.058594 311.882812 171.042969 C 311.882812 171.058594 311.882812 171.070312 311.882812 171.085938 M 311.882812 170.980469 C 311.882812 170.96875 311.882812 170.957031 311.882812 170.941406 C 311.882812 170.957031 311.882812 170.96875 311.882812 170.980469 M 311.882812 170.878906 C 311.882812 170.863281 311.882812 170.851562 311.882812 170.839844 C 311.882812 170.851562 311.882812 170.863281 311.882812 170.878906 M 311.882812 170.773438 C 311.882812 170.757812 311.878906 170.746094 311.878906 170.734375 C 311.878906 170.746094 311.882812 170.757812 311.882812 170.773438 M 311.878906 170.671875 C 311.878906 170.65625 311.878906 170.644531 311.878906 170.628906 C 311.878906 170.644531 311.878906 170.65625 311.878906 170.671875 M 311.878906 170.566406 C 311.878906 170.554688 311.878906 170.539062 311.878906 170.53125 C 311.878906 170.542969 311.878906 170.550781 311.878906 170.566406 M 311.878906 170.460938 C 311.878906 170.449219 311.878906 170.4375 311.878906 170.425781 C 311.878906 170.4375 311.878906 170.445312 311.878906 170.460938 M 311.878906 170.355469 C 311.878906 170.34375 311.878906 170.332031 311.878906 170.320312 C 311.878906 170.332031 311.878906 170.34375 311.878906 170.355469 M 311.878906 170.253906 C 311.878906 170.242188 311.878906 170.230469 311.878906 170.21875 C 311.878906 170.234375 311.878906 170.238281 311.878906 170.253906 M 311.875 170.148438 C 311.875 170.136719 311.875 170.128906 311.875 170.113281 C 311.875 170.128906 311.875 170.136719 311.875 170.148438 M 311.875 170.042969 C 311.875 170.035156 311.875 170.023438 311.875 170.011719 C 311.875 170.027344 311.875 170.03125 311.875 170.042969 M 311.875 169.9375 C 311.875 169.929688 311.875 169.917969 311.875 169.910156 C 311.875 169.921875 311.875 169.925781 311.875 169.9375 M 311.875 169.835938 C 311.871094 169.828125 311.871094 169.816406 311.871094 169.804688 C 311.871094 169.816406 311.871094 169.824219 311.875 169.835938 M 311.871094 169.730469 C 311.871094 169.722656 311.871094 169.710938 311.871094 169.703125 C 311.871094 169.710938 311.871094 169.722656 311.871094 169.730469 M 311.871094 169.625 C 311.871094 169.617188 311.871094 169.609375 311.871094 169.597656 C 311.871094 169.609375 311.871094 169.617188 311.871094 169.625 M 311.871094 169.519531 C 311.867188 169.511719 311.867188 169.503906 311.867188 169.496094 C 311.867188 169.503906 311.867188 169.515625 311.871094 169.519531 M 311.867188 169.417969 C 311.867188 169.410156 311.867188 169.402344 311.867188 169.390625 C 311.867188 169.402344 311.867188 169.410156 311.867188 169.417969 M 311.863281 169.3125 C 311.863281 169.304688 311.863281 169.296875 311.863281 169.289062 C 311.863281 169.296875 311.863281 169.304688 311.863281 169.3125 M 311.863281 169.210938 C 311.863281 169.203125 311.863281 169.195312 311.863281 169.1875 C 311.863281 169.195312 311.863281 169.199219 311.863281 169.210938 M 311.859375 169.105469 C 311.859375 169.097656 311.859375 169.089844 311.859375 169.082031 C 311.859375 169.089844 311.859375 169.097656 311.859375 169.105469 M 311.859375 169 C 311.859375 168.992188 311.859375 168.984375 311.859375 168.980469 C 311.859375 168.988281 311.859375 168.992188 311.859375 169 M 311.855469 168.894531 C 311.855469 168.890625 311.855469 168.882812 311.855469 168.875 C 311.855469 168.882812 311.855469 168.886719 311.855469 168.894531 M 311.855469 168.789062 C 311.855469 168.785156 311.855469 168.777344 311.855469 168.773438 C 311.855469 168.78125 311.855469 168.78125 311.855469 168.789062 M 311.851562 168.6875 C 311.851562 168.679688 311.851562 168.675781 311.851562 168.667969 C 311.851562 168.679688 311.851562 168.679688 311.851562 168.6875 M 311.851562 168.582031 C 311.851562 168.574219 311.851562 168.570312 311.851562 168.566406 C 311.851562 168.574219 311.851562 168.574219 311.851562 168.582031 M 311.847656 168.476562 C 311.847656 168.472656 311.847656 168.464844 311.847656 168.460938 C 311.847656 168.472656 311.847656 168.46875 311.847656 168.476562 M 311.84375 168.371094 C 311.84375 168.367188 311.84375 168.363281 311.84375 168.359375 C 311.84375 168.363281 311.84375 168.367188 311.84375 168.371094 M 311.84375 168.269531 C 311.84375 168.261719 311.84375 168.257812 311.84375 168.253906 C 311.84375 168.257812 311.84375 168.261719 311.84375 168.269531 M 311.839844 168.164062 C 311.839844 168.160156 311.839844 168.15625 311.839844 168.152344 C 311.839844 168.15625 311.839844 168.160156 311.839844 168.164062 M 311.839844 168.0625 C 311.839844 168.054688 311.839844 168.050781 311.835938 168.046875 C 311.839844 168.050781 311.839844 168.054688 311.839844 168.0625 M 311.835938 167.953125 C 311.835938 167.953125 311.835938 167.949219 311.835938 167.945312 L 311.835938 167.953125 M 311.832031 167.851562 C 311.832031 167.847656 311.832031 167.84375 311.832031 167.84375 L 311.832031 167.851562 M 311.828125 167.742188 C 311.828125 167.742188 311.828125 167.738281 311.828125 167.738281 L 311.828125 167.742188 M 311.824219 167.640625 C 311.824219 167.640625 311.824219 167.632812 311.824219 167.632812 L 311.824219 167.640625 M 311.824219 167.535156 C 311.824219 167.535156 311.824219 167.53125 311.824219 167.53125 L 311.824219 167.535156 M 311.820312 167.433594 C 311.820312 167.429688 311.820312 167.425781 311.820312 167.425781 L 311.820312 167.433594 M 311.757812 165.773438 C 311.757812 165.75 311.753906 165.722656 311.753906 165.699219 C 311.753906 165.726562 311.757812 165.746094 311.757812 165.773438 M 311.75 165.664062 C 311.75 165.632812 311.75 165.601562 311.746094 165.574219 C 311.75 165.601562 311.75 165.632812 311.75 165.664062 M 311.746094 165.5625 C 311.746094 165.535156 311.746094 165.503906 311.742188 165.476562 C 311.746094 165.503906 311.746094 165.539062 311.746094 165.5625 M 311.742188 165.460938 C 311.027344 150.125 307.648438 135.5 302.042969 122.011719 L 302.027344 122.011719 C 299.328125 115.488281 296.160156 109.304688 292.574219 103.484375 C 303.808594 121.644531 310.683594 142.796875 311.742188 165.460938 M 273.964844 79.972656 C 273.796875 79.808594 273.628906 79.640625 273.460938 79.472656 C 273.628906 79.640625 273.796875 79.808594 273.964844 79.972656 " fill-opacity="1" fill-rule="nonzero"/><path fill="#d06e4f" d="M 311.792969 175.261719 C 311.757812 174.039062 311.703125 172.820312 311.632812 171.605469 L 311.886719 171.605469 C 311.886719 172.832031 311.824219 174.042969 311.792969 175.261719 " fill-opacity="1" fill-rule="nonzero"/><path fill="#b62d36" d="M 311.886719 171.605469 L 311.632812 171.605469 C 310.609375 154.347656 306.019531 138.046875 298.585938 123.449219 L 302.03125 122.019531 C 302.03125 122.015625 302.027344 122.011719 302.027344 122.011719 L 302.042969 122.011719 C 307.648438 135.5 311.027344 150.125 311.742188 165.460938 C 311.742188 165.46875 311.742188 165.46875 311.742188 165.476562 C 311.746094 165.503906 311.746094 165.535156 311.746094 165.5625 C 311.746094 165.566406 311.746094 165.570312 311.746094 165.574219 C 311.75 165.601562 311.75 165.632812 311.75 165.664062 C 311.75 165.679688 311.75 165.683594 311.753906 165.699219 C 311.753906 165.722656 311.757812 165.75 311.757812 165.773438 C 311.777344 166.253906 311.796875 166.738281 311.8125 167.21875 C 311.8125 167.289062 311.816406 167.359375 311.820312 167.425781 C 311.820312 167.425781 311.820312 167.429688 311.820312 167.433594 C 311.820312 167.464844 311.820312 167.496094 311.824219 167.53125 C 311.824219 167.53125 311.824219 167.535156 311.824219 167.535156 C 311.824219 167.566406 311.824219 167.597656 311.824219 167.632812 C 311.824219 167.632812 311.824219 167.640625 311.824219 167.640625 C 311.828125 167.675781 311.828125 167.703125 311.828125 167.738281 C 311.828125 167.738281 311.828125 167.742188 311.828125 167.742188 C 311.828125 167.777344 311.828125 167.804688 311.832031 167.84375 C 311.832031 167.84375 311.832031 167.847656 311.832031 167.851562 C 311.832031 167.882812 311.835938 167.910156 311.835938 167.945312 C 311.835938 167.949219 311.835938 167.953125 311.835938 167.953125 C 311.835938 167.988281 311.835938 168.011719 311.835938 168.046875 C 311.839844 168.050781 311.839844 168.054688 311.839844 168.0625 C 311.839844 168.09375 311.839844 168.121094 311.839844 168.152344 C 311.839844 168.15625 311.839844 168.160156 311.839844 168.164062 C 311.839844 168.195312 311.84375 168.222656 311.84375 168.253906 C 311.84375 168.257812 311.84375 168.261719 311.84375 168.269531 C 311.84375 168.300781 311.84375 168.328125 311.84375 168.359375 C 311.84375 168.363281 311.84375 168.367188 311.84375 168.371094 C 311.84375 168.398438 311.847656 168.4375 311.847656 168.460938 C 311.847656 168.464844 311.847656 168.472656 311.847656 168.476562 C 311.851562 168.503906 311.851562 168.539062 311.851562 168.566406 C 311.851562 168.570312 311.851562 168.574219 311.851562 168.582031 C 311.851562 168.605469 311.851562 168.644531 311.851562 168.667969 C 311.851562 168.675781 311.851562 168.679688 311.851562 168.6875 C 311.855469 168.710938 311.855469 168.746094 311.855469 168.773438 C 311.855469 168.777344 311.855469 168.785156 311.855469 168.789062 C 311.855469 168.816406 311.855469 168.851562 311.855469 168.875 C 311.855469 168.882812 311.855469 168.890625 311.855469 168.894531 C 311.859375 168.921875 311.859375 168.953125 311.859375 168.980469 C 311.859375 168.984375 311.859375 168.992188 311.859375 169 C 311.859375 169.027344 311.859375 169.054688 311.859375 169.082031 C 311.859375 169.089844 311.859375 169.097656 311.859375 169.105469 C 311.863281 169.132812 311.863281 169.160156 311.863281 169.1875 C 311.863281 169.195312 311.863281 169.203125 311.863281 169.210938 C 311.863281 169.234375 311.863281 169.261719 311.863281 169.289062 C 311.863281 169.296875 311.863281 169.304688 311.863281 169.3125 C 311.863281 169.339844 311.863281 169.367188 311.867188 169.390625 C 311.867188 169.402344 311.867188 169.410156 311.867188 169.417969 C 311.867188 169.445312 311.867188 169.46875 311.867188 169.496094 C 311.867188 169.503906 311.867188 169.511719 311.871094 169.519531 C 311.871094 169.546875 311.871094 169.574219 311.871094 169.597656 C 311.871094 169.609375 311.871094 169.617188 311.871094 169.625 C 311.871094 169.652344 311.871094 169.675781 311.871094 169.703125 C 311.871094 169.710938 311.871094 169.722656 311.871094 169.730469 C 311.871094 169.753906 311.871094 169.78125 311.871094 169.804688 C 311.871094 169.816406 311.871094 169.828125 311.875 169.835938 C 311.875 169.859375 311.875 169.886719 311.875 169.910156 C 311.875 169.917969 311.875 169.929688 311.875 169.9375 C 311.875 169.960938 311.875 169.988281 311.875 170.011719 C 311.875 170.023438 311.875 170.035156 311.875 170.042969 C 311.875 170.066406 311.875 170.09375 311.875 170.113281 C 311.875 170.128906 311.875 170.136719 311.875 170.148438 C 311.875 170.171875 311.875 170.195312 311.878906 170.21875 C 311.878906 170.230469 311.878906 170.242188 311.878906 170.253906 C 311.878906 170.273438 311.878906 170.300781 311.878906 170.320312 C 311.878906 170.332031 311.878906 170.34375 311.878906 170.355469 C 311.878906 170.378906 311.878906 170.402344 311.878906 170.425781 C 311.878906 170.4375 311.878906 170.449219 311.878906 170.460938 C 311.878906 170.484375 311.878906 170.507812 311.878906 170.53125 C 311.878906 170.539062 311.878906 170.554688 311.878906 170.566406 C 311.878906 170.585938 311.878906 170.609375 311.878906 170.628906 C 311.878906 170.644531 311.878906 170.65625 311.878906 170.671875 C 311.878906 170.6875 311.878906 170.714844 311.878906 170.734375 C 311.878906 170.746094 311.882812 170.757812 311.882812 170.773438 C 311.882812 170.792969 311.882812 170.816406 311.882812 170.839844 C 311.882812 170.851562 311.882812 170.863281 311.882812 170.878906 C 311.882812 170.898438 311.882812 170.917969 311.882812 170.941406 C 311.882812 170.957031 311.882812 170.96875 311.882812 170.980469 C 311.882812 171.003906 311.882812 171.023438 311.882812 171.042969 C 311.882812 171.058594 311.882812 171.070312 311.882812 171.085938 C 311.882812 171.105469 311.882812 171.128906 311.882812 171.148438 C 311.882812 171.164062 311.882812 171.175781 311.882812 171.191406 C 311.882812 171.210938 311.882812 171.238281 311.882812 171.257812 C 311.886719 171.269531 311.886719 171.28125 311.886719 171.292969 C 311.886719 171.320312 311.886719 171.339844 311.886719 171.363281 C 311.886719 171.375 311.886719 171.386719 311.886719 171.398438 C 311.886719 171.425781 311.886719 171.441406 311.886719 171.46875 C 311.886719 171.480469 311.886719 171.492188 311.886719 171.5 C 311.886719 171.535156 311.886719 171.570312 311.886719 171.605469 " fill-opacity="1" fill-rule="nonzero"/><path fill="#d06e4f" d="M 298.585938 123.449219 C 291.148438 108.851562 280.875 95.949219 268.488281 85.472656 L 273.972656 79.980469 C 273.96875 79.976562 273.96875 79.976562 273.964844 79.972656 C 281.035156 87.050781 287.285156 94.933594 292.574219 103.484375 C 296.160156 109.304688 299.328125 115.488281 302.027344 122.011719 C 302.027344 122.011719 302.03125 122.015625 302.03125 122.019531 L 298.585938 123.449219 " fill-opacity="1" fill-rule="nonzero"/><path fill="#d08e4f" d="M 273.457031 79.46875 C 273.4375 79.453125 273.421875 79.433594 273.402344 79.417969 C 273.421875 79.433594 273.4375 79.453125 273.457031 79.46875 M 273.355469 79.371094 C 273.355469 79.367188 273.351562 79.363281 273.347656 79.359375 C 273.351562 79.363281 273.355469 79.367188 273.355469 79.371094 M 243.421875 57.277344 C 239.679688 55.28125 235.863281 53.480469 231.980469 51.878906 L 231.96875 51.886719 C 223.511719 48.382812 214.902344 45.84375 206.253906 44.214844 C 219.453125 46.675781 231.957031 51.140625 243.421875 57.277344 " fill-opacity="1" fill-rule="nonzero"/><path fill="#b62d36" d="M 268.488281 85.472656 C 256.574219 75.394531 242.707031 67.5625 227.535156 62.625 L 231.976562 51.894531 C 231.972656 51.890625 231.96875 51.886719 231.96875 51.886719 L 231.980469 51.878906 C 235.863281 53.480469 239.679688 55.28125 243.421875 57.277344 C 254.449219 63.1875 264.519531 70.640625 273.347656 79.359375 C 273.351562 79.363281 273.355469 79.367188 273.355469 79.371094 C 273.371094 79.386719 273.386719 79.402344 273.402344 79.417969 C 273.421875 79.433594 273.4375 79.453125 273.457031 79.46875 C 273.460938 79.472656 273.460938 79.472656 273.460938 79.472656 C 273.628906 79.640625 273.796875 79.808594 273.964844 79.972656 C 273.96875 79.976562 273.96875 79.976562 273.972656 79.980469 L 268.488281 85.472656 " fill-opacity="1" fill-rule="nonzero"/><path fill="#d06e4f" d="M 227.535156 62.625 C 215.636719 58.75 202.9375 56.660156 189.746094 56.660156 C 187.289062 56.660156 184.851562 56.730469 182.429688 56.875 L 182.429688 42.027344 C 182.433594 42.027344 182.433594 42.027344 182.4375 42.027344 C 190.578125 42.027344 198.53125 42.777344 206.253906 44.214844 C 214.902344 45.84375 223.511719 48.382812 231.96875 51.886719 C 231.96875 51.886719 231.972656 51.890625 231.976562 51.894531 L 227.535156 62.625 " fill-opacity="1" fill-rule="nonzero"/><path fill="#ffda61" d="M 198.785156 171.605469 C 198.785156 180.640625 191.464844 187.96875 182.4375 187.96875 C 173.410156 187.96875 166.09375 180.640625 166.09375 171.605469 C 166.09375 162.570312 173.410156 155.242188 182.4375 155.242188 C 191.464844 155.242188 198.785156 162.570312 198.785156 171.605469 " fill-opacity="1" fill-rule="nonzero"/><path fill="#ffa461" d="M 190.867188 171.605469 C 190.867188 176.269531 187.09375 180.046875 182.4375 180.046875 C 177.78125 180.046875 174.007812 176.269531 174.007812 171.605469 C 174.007812 166.941406 177.78125 163.164062 182.4375 163.164062 C 187.09375 163.164062 190.867188 166.941406 190.867188 171.605469 " fill-opacity="1" fill-rule="nonzero"/><path fill="#d0a4ae" d="M 353.027344 171.464844 C 353.027344 171.453125 353.023438 171.441406 353.023438 171.429688 C 353.023438 171.441406 353.027344 171.453125 353.027344 171.464844 M 353.023438 171.324219 C 353.023438 171.308594 353.023438 171.296875 353.023438 171.277344 C 353.023438 171.292969 353.023438 171.308594 353.023438 171.324219 M 353.023438 171.183594 C 353.023438 171.167969 353.023438 171.160156 353.023438 171.140625 C 353.023438 171.152344 353.023438 171.171875 353.023438 171.183594 M 353.023438 171.042969 C 353.023438 171.03125 353.023438 171.011719 353.023438 171.003906 C 353.023438 171.019531 353.023438 171.027344 353.023438 171.042969 M 353.023438 170.902344 C 353.023438 170.890625 353.023438 170.878906 353.023438 170.867188 C 353.023438 170.878906 353.023438 170.890625 353.023438 170.902344 M 353.023438 170.757812 C 353.023438 170.75 353.023438 170.738281 353.023438 170.726562 C 353.023438 170.742188 353.023438 170.75 353.023438 170.757812 M 353.023438 170.617188 C 353.023438 170.609375 353.023438 170.601562 353.023438 170.59375 C 353.023438 170.601562 353.023438 170.609375 353.023438 170.617188 M 353.023438 170.476562 C 353.023438 170.464844 353.023438 170.46875 353.023438 170.457031 C 353.023438 170.464844 353.023438 170.46875 353.023438 170.476562 M 353.019531 170.332031 L 353.019531 170.320312 C 353.019531 170.324219 353.019531 170.332031 353.019531 170.332031 M 353.019531 170.191406 L 353.019531 170.183594 L 353.019531 170.191406 " fill-opacity="1" fill-rule="nonzero"/><path fill="#b62d36" d="M 182.4375 342.367188 C 134.085938 342.367188 90.460938 322.191406 59.421875 289.835938 L 81.621094 267.613281 C 106.621094 293.910156 141.789062 310.441406 180.8125 310.886719 C 180.851562 310.886719 180.886719 310.890625 180.925781 310.890625 C 180.925781 310.890625 180.929688 310.890625 180.933594 310.890625 C 180.964844 310.890625 181.003906 310.890625 181.035156 310.890625 C 181.039062 310.890625 181.046875 310.890625 181.050781 310.890625 C 181.085938 310.894531 181.113281 310.894531 181.148438 310.894531 C 181.15625 310.894531 181.160156 310.894531 181.171875 310.894531 C 181.195312 310.894531 181.226562 310.894531 181.257812 310.894531 C 181.265625 310.894531 181.28125 310.894531 181.289062 310.894531 C 181.316406 310.894531 181.339844 310.894531 181.367188 310.894531 C 181.378906 310.894531 181.394531 310.894531 181.402344 310.894531 C 181.433594 310.894531 181.449219 310.894531 181.476562 310.894531 C 181.492188 310.894531 181.507812 310.894531 181.519531 310.894531 C 181.542969 310.894531 181.570312 310.894531 181.59375 310.894531 C 181.605469 310.894531 181.621094 310.894531 181.636719 310.894531 C 181.660156 310.894531 181.679688 310.894531 181.703125 310.898438 C 181.714844 310.898438 181.738281 310.898438 181.75 310.898438 C 181.777344 310.898438 181.792969 310.898438 181.8125 310.898438 C 181.832031 310.898438 181.851562 310.898438 181.867188 310.898438 C 181.890625 310.898438 181.902344 310.898438 181.925781 310.898438 C 181.941406 310.898438 181.964844 310.898438 181.980469 310.898438 C 182 310.898438 182.019531 310.898438 182.039062 310.898438 C 182.058594 310.898438 182.078125 310.898438 182.097656 310.898438 C 182.113281 310.898438 182.136719 310.898438 182.152344 310.898438 C 182.171875 310.898438 182.191406 310.898438 182.210938 310.898438 C 182.226562 310.898438 182.253906 310.898438 182.269531 310.898438 C 182.289062 310.898438 182.308594 310.898438 182.324219 310.898438 C 182.359375 310.898438 182.390625 310.898438 182.421875 310.898438 C 182.425781 310.898438 182.433594 310.898438 182.4375 310.898438 C 182.441406 310.898438 182.433594 310.898438 182.4375 310.898438 C 201.652344 310.898438 219.953125 307 236.601562 299.953125 C 286.546875 278.804688 321.589844 229.300781 321.589844 171.605469 C 321.589844 171.566406 321.589844 171.527344 321.589844 171.492188 C 321.589844 171.480469 321.589844 171.464844 321.589844 171.449219 C 321.589844 171.429688 321.589844 171.398438 321.589844 171.375 C 321.589844 171.363281 321.589844 171.347656 321.589844 171.335938 C 321.589844 171.308594 321.589844 171.285156 321.589844 171.261719 C 321.589844 171.246094 321.589844 171.234375 321.589844 171.222656 C 321.589844 171.191406 321.589844 171.175781 321.589844 171.144531 C 321.589844 171.132812 321.589844 171.121094 321.589844 171.105469 C 321.589844 171.078125 321.589844 171.058594 321.589844 171.03125 C 321.589844 171.019531 321.589844 171.007812 321.589844 170.996094 C 321.589844 170.964844 321.589844 170.941406 321.589844 170.914062 C 321.589844 170.902344 321.589844 170.894531 321.589844 170.882812 C 321.589844 170.855469 321.589844 170.824219 321.589844 170.796875 C 321.589844 170.789062 321.589844 170.78125 321.589844 170.773438 C 321.589844 170.738281 321.589844 170.714844 321.589844 170.679688 C 321.589844 170.675781 321.589844 170.664062 321.589844 170.660156 C 321.589844 170.625 321.589844 170.597656 321.585938 170.566406 C 321.585938 170.554688 321.585938 170.554688 321.585938 170.546875 C 321.585938 170.515625 321.585938 170.480469 321.585938 170.445312 C 321.585938 170.445312 321.585938 170.4375 321.585938 170.4375 C 321.585938 170.398438 321.585938 170.363281 321.585938 170.328125 C 321.230469 131.125 304.699219 95.785156 278.351562 70.683594 L 300.550781 48.464844 C 332.558594 79.234375 352.628906 122.34375 353.019531 170.183594 L 353.019531 170.191406 C 353.019531 170.234375 353.019531 170.277344 353.019531 170.320312 L 353.019531 170.332031 C 353.019531 170.375 353.023438 170.414062 353.023438 170.457031 C 353.023438 170.46875 353.023438 170.464844 353.023438 170.476562 C 353.023438 170.515625 353.023438 170.554688 353.023438 170.59375 C 353.023438 170.601562 353.023438 170.609375 353.023438 170.617188 C 353.023438 170.65625 353.023438 170.695312 353.023438 170.726562 C 353.023438 170.738281 353.023438 170.75 353.023438 170.757812 C 353.023438 170.792969 353.023438 170.832031 353.023438 170.867188 C 353.023438 170.878906 353.023438 170.890625 353.023438 170.902344 C 353.023438 170.933594 353.023438 170.972656 353.023438 171.003906 C 353.023438 171.011719 353.023438 171.03125 353.023438 171.042969 C 353.023438 171.074219 353.023438 171.109375 353.023438 171.140625 C 353.023438 171.160156 353.023438 171.167969 353.023438 171.183594 C 353.023438 171.214844 353.023438 171.246094 353.023438 171.277344 C 353.023438 171.296875 353.023438 171.308594 353.023438 171.324219 C 353.023438 171.363281 353.023438 171.394531 353.023438 171.429688 C 353.023438 171.441406 353.027344 171.453125 353.027344 171.464844 C 353.027344 171.511719 353.027344 171.558594 353.027344 171.605469 C 353.027344 173.308594 353 175.007812 352.953125 176.699219 C 350.261719 268.648438 274.949219 342.367188 182.4375 342.367188 " fill-opacity="1" fill-rule="nonzero"/><path fill="#d08e4f" d="M 182.4375 310.898438 C 201.648438 310.898438 219.960938 307 236.601562 299.953125 C 219.953125 307 201.652344 310.898438 182.4375 310.898438 M 182.421875 310.898438 C 182.390625 310.898438 182.359375 310.898438 182.324219 310.898438 C 182.359375 310.898438 182.386719 310.898438 182.421875 310.898438 M 182.269531 310.898438 C 182.253906 310.898438 182.226562 310.898438 182.210938 310.898438 C 182.230469 310.898438 182.253906 310.898438 182.269531 310.898438 M 182.152344 310.898438 C 182.136719 310.898438 182.113281 310.898438 182.097656 310.898438 C 182.113281 310.898438 182.132812 310.898438 182.152344 310.898438 M 182.039062 310.898438 C 182.019531 310.898438 182 310.898438 181.980469 310.898438 C 182 310.898438 182.019531 310.898438 182.039062 310.898438 M 181.925781 310.898438 C 181.902344 310.898438 181.890625 310.898438 181.867188 310.898438 C 181.886719 310.898438 181.90625 310.898438 181.925781 310.898438 M 181.8125 310.898438 C 181.792969 310.898438 181.777344 310.898438 181.75 310.898438 C 181.773438 310.898438 181.792969 310.898438 181.8125 310.898438 M 181.703125 310.898438 C 181.679688 310.894531 181.660156 310.894531 181.636719 310.894531 C 181.660156 310.894531 181.679688 310.894531 181.703125 310.898438 M 181.59375 310.894531 C 181.570312 310.894531 181.542969 310.894531 181.519531 310.894531 C 181.542969 310.894531 181.570312 310.894531 181.59375 310.894531 M 181.476562 310.894531 C 181.449219 310.894531 181.433594 310.894531 181.402344 310.894531 C 181.429688 310.894531 181.453125 310.894531 181.476562 310.894531 M 181.367188 310.894531 C 181.339844 310.894531 181.316406 310.894531 181.289062 310.894531 C 181.316406 310.894531 181.339844 310.894531 181.367188 310.894531 M 181.257812 310.894531 C 181.226562 310.894531 181.195312 310.894531 181.171875 310.894531 C 181.199219 310.894531 181.226562 310.894531 181.257812 310.894531 M 181.148438 310.894531 C 181.113281 310.894531 181.085938 310.894531 181.050781 310.890625 C 181.082031 310.894531 181.117188 310.894531 181.148438 310.894531 M 181.035156 310.890625 C 181.003906 310.890625 180.964844 310.890625 180.933594 310.890625 C 180.96875 310.890625 181 310.890625 181.035156 310.890625 M 180.925781 310.890625 C 180.886719 310.890625 180.851562 310.886719 180.8125 310.886719 C 180.847656 310.886719 180.886719 310.890625 180.925781 310.890625 M 180.8125 310.886719 C 141.789062 310.441406 106.621094 293.910156 81.621094 267.613281 L 81.648438 267.585938 C 106.652344 293.886719 141.785156 310.441406 180.8125 310.886719 M 321.589844 171.605469 C 321.589844 171.566406 321.589844 171.53125 321.589844 171.492188 C 321.589844 171.527344 321.589844 171.566406 321.589844 171.605469 M 321.589844 171.449219 C 321.589844 171.425781 321.589844 171.402344 321.589844 171.375 C 321.589844 171.398438 321.589844 171.429688 321.589844 171.449219 M 321.589844 171.335938 C 321.589844 171.308594 321.589844 171.285156 321.589844 171.261719 C 321.589844 171.285156 321.589844 171.308594 321.589844 171.335938 M 321.589844 171.222656 C 321.589844 171.195312 321.589844 171.167969 321.589844 171.144531 C 321.589844 171.175781 321.589844 171.191406 321.589844 171.222656 M 321.589844 171.105469 C 321.589844 171.082031 321.589844 171.054688 321.589844 171.03125 C 321.589844 171.058594 321.589844 171.078125 321.589844 171.105469 M 321.589844 170.996094 C 321.589844 170.96875 321.589844 170.941406 321.589844 170.914062 C 321.589844 170.941406 321.589844 170.964844 321.589844 170.996094 M 321.589844 170.882812 C 321.589844 170.851562 321.589844 170.824219 321.589844 170.796875 C 321.589844 170.824219 321.589844 170.855469 321.589844 170.882812 M 321.589844 170.773438 C 321.589844 170.742188 321.589844 170.710938 321.589844 170.679688 C 321.589844 170.714844 321.589844 170.738281 321.589844 170.773438 M 321.589844 170.660156 C 321.589844 170.625 321.589844 170.597656 321.585938 170.566406 C 321.589844 170.597656 321.589844 170.625 321.589844 170.660156 M 321.585938 170.546875 C 321.585938 170.515625 321.585938 170.480469 321.585938 170.445312 C 321.585938 170.480469 321.585938 170.515625 321.585938 170.546875 M 321.585938 170.4375 C 321.585938 170.398438 321.585938 170.363281 321.585938 170.328125 C 321.585938 170.363281 321.585938 170.398438 321.585938 170.4375 M 321.585938 170.328125 C 321.230469 131.125 304.671875 95.816406 278.320312 70.714844 L 278.351562 70.683594 C 304.699219 95.785156 321.230469 131.125 321.585938 170.328125 " fill-opacity="1" fill-rule="nonzero"/><path fill="#ffc161" d="M 192.050781 16.578125 C 192.050781 21.898438 187.742188 26.210938 182.429688 26.210938 C 177.117188 26.210938 172.804688 21.898438 172.804688 16.578125 C 172.804688 11.261719 177.117188 6.949219 182.429688 6.949219 C 187.742188 6.949219 192.050781 11.261719 192.050781 16.578125 " fill-opacity="1" fill-rule="nonzero"/><path fill="#ffda61" d="M 176.203125 22.40625 C 172.878906 19.078125 172.878906 13.679688 176.203125 10.347656 C 179.53125 7.019531 184.921875 7.019531 188.25 10.347656 C 191.574219 13.679688 179.53125 25.738281 176.203125 22.40625 " fill-opacity="1" fill-rule="nonzero"/><path fill="#ffa461" d="M 177.257812 24.691406 C 178.753906 25.648438 180.523438 26.210938 182.429688 26.210938 C 187.742188 26.210938 192.050781 21.898438 192.050781 16.578125 C 192.050781 14.296875 191.25 12.207031 189.929688 10.558594 C 193.710938 16.445312 183.070312 27.773438 177.257812 24.691406 " fill-opacity="1" fill-rule="nonzero"/><path fill="#a31313" d="M 114.617188 37.34375 C 114.617188 42.664062 110.308594 46.976562 104.992188 46.976562 C 99.683594 46.976562 95.375 42.664062 95.375 37.34375 C 95.375 32.023438 99.683594 27.714844 104.992188 27.714844 C 110.308594 27.714844 114.617188 32.023438 114.617188 37.34375 " fill-opacity="1" fill-rule="nonzero"/><path fill="#f24949" d="M 98.769531 43.171875 C 95.445312 39.839844 95.445312 34.445312 98.769531 31.113281 C 102.097656 27.785156 107.488281 27.785156 110.816406 31.113281 C 114.140625 34.445312 102.097656 46.5 98.769531 43.171875 " fill-opacity="1" fill-rule="nonzero"/><path fill="#7a0f0f" d="M 99.824219 45.457031 C 101.320312 46.414062 103.089844 46.972656 104.992188 46.972656 C 110.308594 46.972656 114.617188 42.664062 114.617188 37.34375 C 114.617188 35.0625 113.820312 32.972656 112.496094 31.320312 C 116.277344 37.207031 105.636719 48.539062 99.824219 45.457031 " fill-opacity="1" fill-rule="nonzero"/><path fill="#a31313" d="M 269.484375 37.34375 C 269.484375 42.664062 265.179688 46.976562 259.863281 46.976562 C 254.550781 46.976562 250.242188 42.664062 250.242188 37.34375 C 250.242188 32.023438 254.550781 27.714844 259.863281 27.714844 C 265.179688 27.714844 269.484375 32.023438 269.484375 37.34375 " fill-opacity="1" fill-rule="nonzero"/><path fill="#f24949" d="M 253.640625 43.171875 C 250.316406 39.839844 250.316406 34.445312 253.640625 31.113281 C 256.96875 27.785156 262.359375 27.785156 265.6875 31.113281 C 269.011719 34.445312 256.96875 46.5 253.640625 43.171875 " fill-opacity="1" fill-rule="nonzero"/><path fill="#7a0f0f" d="M 254.695312 45.457031 C 256.1875 46.414062 257.960938 46.972656 259.863281 46.972656 C 265.179688 46.972656 269.484375 42.664062 269.484375 37.34375 C 269.484375 35.0625 268.6875 32.972656 267.367188 31.320312 C 271.148438 37.207031 260.507812 48.539062 254.695312 45.457031 " fill-opacity="1" fill-rule="nonzero"/><path fill="#a31313" d="M 37.191406 171.617188 C 37.191406 176.933594 32.882812 181.246094 27.570312 181.246094 C 22.253906 181.246094 17.949219 176.933594 17.949219 171.617188 C 17.949219 166.296875 22.253906 161.984375 27.570312 161.984375 C 32.882812 161.984375 37.191406 166.296875 37.191406 171.617188 " fill-opacity="1" fill-rule="nonzero"/><path fill="#f24949" d="M 21.34375 177.441406 C 18.019531 174.113281 18.019531 168.714844 21.34375 165.382812 C 24.671875 162.058594 30.066406 162.058594 33.390625 165.382812 C 36.71875 168.714844 24.671875 180.773438 21.34375 177.441406 " fill-opacity="1" fill-rule="nonzero"/><path fill="#7a0f0f" d="M 22.398438 179.730469 C 23.894531 180.6875 25.664062 181.246094 27.570312 181.246094 C 32.882812 181.246094 37.191406 176.933594 37.191406 171.617188 C 37.191406 169.335938 36.394531 167.242188 35.070312 165.59375 C 38.851562 171.480469 28.210938 182.808594 22.398438 179.730469 " fill-opacity="1" fill-rule="nonzero"/><path fill="#a31313" d="M 114.632812 306.09375 C 114.632812 311.414062 110.324219 315.722656 105.011719 315.722656 C 99.699219 315.722656 95.390625 311.414062 95.390625 306.09375 C 95.390625 300.773438 99.699219 296.464844 105.011719 296.464844 C 110.324219 296.464844 114.632812 300.773438 114.632812 306.09375 " fill-opacity="1" fill-rule="nonzero"/><path fill="#f24949" d="M 98.789062 311.921875 C 95.460938 308.589844 95.460938 303.191406 98.789062 299.863281 C 102.113281 296.53125 107.507812 296.53125 110.832031 299.863281 C 114.160156 303.191406 102.113281 315.25 98.789062 311.921875 " fill-opacity="1" fill-rule="nonzero"/><path fill="#7a0f0f" d="M 99.84375 314.203125 C 101.335938 315.160156 103.105469 315.722656 105.011719 315.722656 C 110.324219 315.722656 114.632812 311.414062 114.632812 306.09375 C 114.632812 303.8125 113.835938 301.71875 112.511719 300.070312 C 116.292969 305.953125 105.65625 317.285156 99.84375 314.203125 " fill-opacity="1" fill-rule="nonzero"/><path fill="#a31313" d="M 269.503906 306.09375 C 269.503906 311.414062 265.195312 315.722656 259.882812 315.722656 C 254.570312 315.722656 250.261719 311.414062 250.261719 306.09375 C 250.261719 300.773438 254.570312 296.464844 259.882812 296.464844 C 265.195312 296.464844 269.503906 300.773438 269.503906 306.09375 " fill-opacity="1" fill-rule="nonzero"/><path fill="#f24949" d="M 253.65625 311.921875 C 250.332031 308.589844 250.332031 303.191406 253.65625 299.863281 C 256.984375 296.53125 262.378906 296.53125 265.703125 299.863281 C 269.03125 303.191406 256.984375 315.25 253.65625 311.921875 " fill-opacity="1" fill-rule="nonzero"/><path fill="#7a0f0f" d="M 254.710938 314.203125 C 256.207031 315.160156 257.976562 315.722656 259.882812 315.722656 C 265.195312 315.722656 269.503906 311.414062 269.503906 306.09375 C 269.503906 303.8125 268.707031 301.71875 267.382812 300.070312 C 271.164062 305.953125 260.523438 317.285156 254.710938 314.203125 " fill-opacity="1" fill-rule="nonzero"/><path fill="#ffc161" d="M 57.941406 94.101562 C 57.941406 99.417969 53.636719 103.730469 48.324219 103.730469 C 43.007812 103.730469 38.703125 99.417969 38.703125 94.101562 C 38.703125 88.78125 43.007812 84.472656 48.324219 84.472656 C 53.636719 84.472656 57.941406 88.78125 57.941406 94.101562 " fill-opacity="1" fill-rule="nonzero"/><path fill="#ffda61" d="M 42.097656 99.929688 C 38.773438 96.601562 38.773438 91.199219 42.097656 87.871094 C 45.425781 84.542969 50.816406 84.542969 54.144531 87.871094 C 57.472656 91.199219 45.425781 103.257812 42.097656 99.929688 " fill-opacity="1" fill-rule="nonzero"/><path fill="#ffa461" d="M 43.152344 102.214844 C 44.648438 103.171875 46.417969 103.730469 48.324219 103.730469 C 53.636719 103.730469 57.941406 99.417969 57.941406 94.101562 C 57.941406 91.820312 57.148438 89.730469 55.824219 88.078125 C 59.605469 93.964844 48.964844 105.296875 43.152344 102.214844 " fill-opacity="1" fill-rule="nonzero"/><path fill="#ffc161" d="M 326.183594 94.101562 C 326.183594 99.417969 321.878906 103.730469 316.5625 103.730469 C 311.25 103.730469 306.945312 99.417969 306.945312 94.101562 C 306.945312 88.78125 311.25 84.472656 316.5625 84.472656 C 321.878906 84.472656 326.183594 88.78125 326.183594 94.101562 " fill-opacity="1" fill-rule="nonzero"/><path fill="#ffda61" d="M 310.339844 99.929688 C 307.015625 96.601562 307.015625 91.199219 310.339844 87.871094 C 313.667969 84.542969 319.058594 84.542969 322.386719 87.871094 C 325.710938 91.199219 313.667969 103.257812 310.339844 99.929688 " fill-opacity="1" fill-rule="nonzero"/><path fill="#ffa461" d="M 311.394531 102.214844 C 312.890625 103.171875 314.660156 103.730469 316.5625 103.730469 C 321.878906 103.730469 326.183594 99.417969 326.183594 94.101562 C 326.183594 91.820312 325.390625 89.730469 324.066406 88.078125 C 327.847656 93.964844 317.207031 105.296875 311.394531 102.214844 " fill-opacity="1" fill-rule="nonzero"/><path fill="#ffc161" d="M 57.933594 249.125 C 57.933594 254.445312 53.625 258.757812 48.3125 258.757812 C 43 258.757812 38.691406 254.445312 38.691406 249.125 C 38.691406 243.808594 43 239.496094 48.3125 239.496094 C 53.625 239.496094 57.933594 243.808594 57.933594 249.125 " fill-opacity="1" fill-rule="nonzero"/><path fill="#ffda61" d="M 42.089844 254.953125 C 38.761719 251.625 38.761719 246.226562 42.089844 242.898438 C 45.414062 239.566406 50.808594 239.566406 54.132812 242.898438 C 57.460938 246.226562 45.414062 258.285156 42.089844 254.953125 " fill-opacity="1" fill-rule="nonzero"/><path fill="#ffa461" d="M 43.144531 257.242188 C 44.636719 258.195312 46.40625 258.757812 48.3125 258.757812 C 53.625 258.757812 57.933594 254.445312 57.933594 249.125 C 57.933594 246.847656 57.136719 244.753906 55.8125 243.105469 C 59.59375 248.992188 48.957031 260.324219 43.144531 257.242188 " fill-opacity="1" fill-rule="nonzero"/><path fill="#ffc161" d="M 326.175781 249.125 C 326.175781 254.445312 321.867188 258.757812 316.554688 258.757812 C 311.242188 258.757812 306.933594 254.445312 306.933594 249.125 C 306.933594 243.808594 311.242188 239.496094 316.554688 239.496094 C 321.867188 239.496094 326.175781 243.808594 326.175781 249.125 " fill-opacity="1" fill-rule="nonzero"/><path fill="#ffda61" d="M 310.332031 254.953125 C 307.003906 251.625 307.003906 246.226562 310.332031 242.898438 C 313.65625 239.566406 319.050781 239.566406 322.375 242.898438 C 325.703125 246.226562 313.65625 258.285156 310.332031 254.953125 " fill-opacity="1" fill-rule="nonzero"/><path fill="#ffa461" d="M 311.382812 257.242188 C 312.878906 258.195312 314.648438 258.757812 316.554688 258.757812 C 321.867188 258.757812 326.175781 254.445312 326.175781 249.125 C 326.175781 246.847656 325.378906 244.753906 324.054688 243.105469 C 327.835938 248.992188 317.195312 260.324219 311.382812 257.242188 " fill-opacity="1" fill-rule="nonzero"/><path fill="#ffc161" d="M 192.070312 326.632812 C 192.070312 331.949219 187.761719 336.261719 182.449219 336.261719 C 177.136719 336.261719 172.828125 331.949219 172.828125 326.632812 C 172.828125 321.3125 177.136719 317 182.449219 317 C 187.761719 317 192.070312 321.3125 192.070312 326.632812 " fill-opacity="1" fill-rule="nonzero"/><path fill="#ffda61" d="M 176.222656 332.457031 C 172.898438 329.128906 172.898438 323.730469 176.222656 320.402344 C 179.550781 317.074219 184.945312 317.074219 188.269531 320.402344 C 191.597656 323.730469 179.550781 335.789062 176.222656 332.457031 " fill-opacity="1" fill-rule="nonzero"/><path fill="#ffa461" d="M 177.277344 334.742188 C 178.773438 335.699219 180.542969 336.261719 182.449219 336.261719 C 187.761719 336.261719 192.070312 331.949219 192.070312 326.632812 C 192.070312 324.351562 191.273438 322.257812 189.949219 320.609375 C 193.730469 326.496094 183.089844 337.824219 177.277344 334.742188 " fill-opacity="1" fill-rule="nonzero"/><g clip-path="url(#1226e91b86)"><path fill="#9ecdff" d="M 362.84375 171.59375 L 285.765625 171.59375 L 350.25 139.652344 Z M 362.84375 171.59375 " fill-opacity="1" fill-rule="nonzero"/></g><g clip-path="url(#b9d6b6184f)"><path fill="#81abff" d="M 362.84375 171.59375 L 285.765625 171.59375 L 350.25 203.539062 Z M 362.84375 171.59375 " fill-opacity="1" fill-rule="nonzero"/></g></svg>